<svg xmlns="http://www.w3.org/2000/svg" viewBox="0 0 120 120" width="120" height="120">
  <defs>
    <linearGradient id="bg-mihari" x1="0%" y1="0%" x2="100%" y2="100%">
      <stop offset="0%" stop-color="#0f172a"/>
      <stop offset="50%" stop-color="#0284c7"/>
      <stop offset="100%" stop-color="#38bdf8"/>
    </linearGradient>
  </defs>
  <rect width="120" height="120" rx="24" fill="url(#bg-mihari)"/>
  <!-- Silver Ponytail side/back -->
  <path d="M78 30 C108 26 114 65 96 82 C88 68 84 46 76 38 Z" fill="#e2e8f0"/>
  <!-- Hair back -->
  <path d="M28 44 C20 72 24 110 38 116 L82 116 C96 110 100 72 92 44 Z" fill="#cbd5e1"/>
  <!-- Face -->
  <ellipse cx="60" cy="62" rx="27" ry="29" fill="#fff7ed"/>
  <!-- Large Emerald / Aqua Eyes -->
  <ellipse cx="47" cy="58" rx="6" ry="8" fill="#0284c7"/>
  <circle cx="48.5" cy="55" r="2.5" fill="#ffffff"/>
  <circle cx="45.5" cy="61" r="1.3" fill="#38bdf8"/>
  <ellipse cx="73" cy="58" rx="6" ry="8" fill="#0284c7"/>
  <circle cx="74.5" cy="55" r="2.5" fill="#ffffff"/>
  <circle cx="71.5" cy="61" r="1.3" fill="#38bdf8"/>
  <!-- Cute Blush -->
  <circle cx="41" cy="68" r="4.5" fill="#f43f5e" opacity="0.4"/>
  <circle cx="79" cy="68" r="4.5" fill="#f43f5e" opacity="0.4"/>
  <!-- Cute Mouth -->
  <path d="M56 73 Q60 77 64 73" stroke="#e11d48" stroke-width="2" fill="none" stroke-linecap="round"/>
  <!-- Bangs & Ahoge -->
  <path d="M59 26 Q64 12 72 18 Q66 22 62 27 Z" fill="#f1f5f9"/>
  <path d="M26 44 C34 26 86 26 94 44 C84 38 72 52 60 44 C48 52 36 38 26 44 Z" fill="#e2e8f0"/>
  <!-- Hair Ribbon (Dark Blue/Cyan) -->
  <polygon points="76,28 84,24 88,32 80,34" fill="#0369a1"/>
  <!-- Lab coat collar & Tie -->
  <path d="M46 90 L60 106 L74 90" stroke="#f8fafc" stroke-width="4" fill="none"/>
  <polygon points="58,94 62,94 63,110 60,114 57,110" fill="#0284c7"/>
</svg>
